<svg width="81" height="73" viewBox="0 0 81 73" fill="none" xmlns="http://www.w3.org/2000/svg">
<path d="M27.2522 62.5709C30.0391 62.5709 32.2983 64.83 32.2983 67.6169C32.2983 70.4037 30.0391 72.6629 27.2522 72.6629C24.4654 72.6629 22.2062 70.4037 22.2062 67.6169C22.2062 64.83 24.4654 62.5709 27.2522 62.5709ZM67.3234 24.221C74.7499 24.221 80.7402 30.337 80.7402 37.8453C80.7402 45.3535 74.7499 51.4696 67.3234 51.4696C67.2024 51.4696 67.0827 51.4635 66.9648 51.4516L66.6113 51.4696L63.4554 51.4695C64.1889 53.0091 64.5988 54.7242 64.5988 56.535C64.5988 63.2889 59.3409 68.666 52.4824 68.666C46.1191 68.666 42.5566 65.9514 40.679 61.4833C39.9233 59.6848 40.7686 57.6142 42.567 56.8585C44.3655 56.1027 46.4361 56.948 47.1918 58.7465C48.0296 60.7403 49.1599 61.6015 52.4824 61.6015C55.4035 61.6015 57.5343 59.4223 57.5343 56.535C57.5343 53.8902 55.2957 51.6483 52.4084 51.4797L52.0589 51.4696H3.53223C1.58143 51.4696 0 49.8881 0 47.9373C0 46.0841 1.42724 44.5642 3.24253 44.4168L3.53223 44.4051H66.6113C66.7326 44.4051 66.8524 44.4112 66.9704 44.4231L67.0337 44.4168L67.3234 44.4051C70.8151 44.4051 73.6758 41.4844 73.6758 37.8453C73.6758 34.2061 70.8151 31.2854 67.3234 31.2854C64.6237 31.2854 62.3855 32.8544 61.638 35.283L61.5414 35.6357C61.0854 37.5324 59.1781 38.7003 57.2813 38.2443C55.3846 37.7882 54.2167 35.8809 54.6728 33.9841C56.0889 28.0946 61.3118 24.221 67.3234 24.221ZM37.3429 0C46.8174 0 54.4979 7.68059 54.4979 17.1551C54.4979 26.4573 47.0941 34.0303 37.8578 34.3026L37.3432 34.3101L3.53617 34.313C1.58538 34.313 0.00364193 32.7319 0.00364193 30.7811C0.00364193 28.9279 1.43059 27.4078 3.24587 27.2603L3.53557 27.2486L37.3426 27.2457C42.9158 27.2457 47.4335 22.728 47.4335 17.1551C47.4335 11.5822 42.9158 7.06445 37.3429 7.06445C31.6443 7.06445 27.2522 11.2564 27.2522 16.7058C27.2522 18.6566 25.6708 20.238 23.72 20.238C21.7692 20.238 20.1878 18.6566 20.1878 16.7058C20.1878 7.27922 27.8145 0 37.3429 0ZM67.6205 6.05524C70.4074 6.05524 72.6666 8.31443 72.6666 11.1013C72.6666 13.8881 70.4074 16.1473 67.6205 16.1473C64.8337 16.1473 62.5745 13.8881 62.5745 11.1013C62.5745 8.31443 64.8337 6.05524 67.6205 6.05524ZM7.06809 2.01841C9.85494 2.01841 12.1141 4.2776 12.1141 7.06445C12.1141 9.8513 9.85494 12.1105 7.06809 12.1105C4.28124 12.1105 2.02206 9.8513 2.02206 7.06445C2.02206 4.2776 4.28124 2.01841 7.06809 2.01841Z" fill="#6FBBEE"/>
</svg>
